<svg xmlns="http://www.w3.org/2000/svg" width="90" height="380" viewBox="0 0 90 380">
  <rect x="0" y="0" width="90" height="380" fill="#0a0c18"/>
  <g fill="rgba(255,200,80,0.18)">
    <rect x="5" y="8" width="11" height="18"/>
    <rect x="22" y="8" width="11" height="18"/>
    <rect x="39" y="8" width="11" height="18"/>
    <rect x="56" y="8" width="11" height="18"/>
    <rect x="73" y="8" width="11" height="18"/>
    <rect x="5" y="46" width="11" height="18"/>
    <rect x="22" y="46" width="11" height="18"/>
    <rect x="39" y="46" width="11" height="18"/>
    <rect x="56" y="46" width="11" height="18"/>
    <rect x="73" y="46" width="11" height="18"/>
    <rect x="5" y="84" width="11" height="18"/>
    <rect x="22" y="84" width="11" height="18"/>
    <rect x="39" y="84" width="11" height="18"/>
    <rect x="56" y="84" width="11" height="18"/>
    <rect x="73" y="84" width="11" height="18"/>
    <rect x="5" y="122" width="11" height="18"/>
    <rect x="22" y="122" width="11" height="18"/>
    <rect x="39" y="122" width="11" height="18"/>
    <rect x="56" y="122" width="11" height="18"/>
    <rect x="73" y="122" width="11" height="18"/>
    <rect x="5" y="160" width="11" height="18"/>
    <rect x="22" y="160" width="11" height="18"/>
    <rect x="39" y="160" width="11" height="18"/>
    <rect x="56" y="160" width="11" height="18"/>
    <rect x="73" y="160" width="11" height="18"/>
    <rect x="5" y="198" width="11" height="18"/>
    <rect x="22" y="198" width="11" height="18"/>
    <rect x="39" y="198" width="11" height="18"/>
    <rect x="56" y="198" width="11" height="18"/>
    <rect x="73" y="198" width="11" height="18"/>
    <rect x="5" y="236" width="11" height="18"/>
    <rect x="22" y="236" width="11" height="18"/>
    <rect x="39" y="236" width="11" height="18"/>
    <rect x="56" y="236" width="11" height="18"/>
    <rect x="73" y="236" width="11" height="18"/>
    <rect x="5" y="274" width="11" height="18"/>
    <rect x="22" y="274" width="11" height="18"/>
    <rect x="39" y="274" width="11" height="18"/>
    <rect x="56" y="274" width="11" height="18"/>
    <rect x="73" y="274" width="11" height="18"/>
    <rect x="5" y="312" width="11" height="18"/>
    <rect x="22" y="312" width="11" height="18"/>
    <rect x="39" y="312" width="11" height="18"/>
    <rect x="56" y="312" width="11" height="18"/>
    <rect x="73" y="312" width="11" height="18"/>
    <rect x="5" y="350" width="11" height="18"/>
    <rect x="22" y="350" width="11" height="18"/>
    <rect x="39" y="350" width="11" height="18"/>
    <rect x="56" y="350" width="11" height="18"/>
    <rect x="73" y="350" width="11" height="18"/>
  </g>
</svg>
